Coordinates
version=1
nRows=16
nColumns=40
inDegrees=yes

Units are S.I. units (second, meters, Newtons, ...)
Angles are in degrees.

endheader
time	pelvis_tilt	pelvis_list	pelvis_rotation	pelvis_tx	pelvis_ty	pelvis_tz	hip_flexion_r	hip_adduction_r	hip_rotation_r	knee_angle_r	knee_angle_r_beta	ankle_angle_r	subtalar_angle_r	mtp_angle_r	hip_flexion_l	hip_adduction_l	hip_rotation_l	knee_angle_l	knee_angle_l_beta	ankle_angle_l	subtalar_angle_l	mtp_angle_l	lumbar_extension	lumbar_bending	lumbar_rotation	arm_flex_r	arm_add_r	arm_rot_r	elbow_flex_r	pro_sup_r	wrist_flex_r	wrist_dev_r	arm_flex_l	arm_add_l	arm_rot_l	elbow_flex_l	pro_sup_l	wrist_flex_l	wrist_dev_l
     18.85000000	     -6.71862674	     -3.31893388	     -1.85999240	      1.00469655	      0.92407828	      0.43852016	     30.99338277	     -2.83283147	    -14.20753684	     17.15677971	     17.15677971	      2.02571885	     -0.74628278	      5.94543414	      3.93997377	     -3.83866511	    -11.84203797	     12.72094888	     12.72094888	     16.64865719	     -3.17695843	     -5.89648039	    -10.56876798	      4.50531032	      3.51889620	    -18.65839603	    -15.11171964	    -12.18318459	     24.15082947	     47.04924706	      0.00000000	      0.00000000	     32.50956397	    -21.61403881	      6.99647012	     89.43981052	     47.29182638	      0.00000000	      0.00000000
     18.86157143	     -6.72072317	     -3.17061840	     -1.88431748	      1.00650398	      0.92237999	      0.44071835	     30.19150653	     -2.45467271	    -15.07958641	     14.71567116	     14.71567116	      2.08326091	      0.85054346	      7.15469053	      3.07037414	     -3.79534360	    -12.01740614	     12.43528109	     12.43528109	     17.12954047	     -2.78699205	     -5.93027928	    -10.31481718	      4.17896820	      3.55776781	    -19.88471661	    -14.91880826	    -12.16633451	     24.68723941	     47.00226594	      0.00000000	      0.00000000	     32.35276839	    -21.74023838	      7.02318177	     91.06055114	     47.33258883	      0.00000000	      0.00000000
     18.87314286	     -6.73150908	     -3.03443436	     -1.89242244	      1.00847089	      0.92065129	      0.44298713	     29.56825194	     -2.13582506	    -15.80987217	     13.08252549	     13.08252549	      2.14898523	      2.10008642	      8.06382776	      2.23221503	     -3.77710225	    -12.22951035	     12.20849908	     12.20849908	     17.68091113	     -2.40209861	     -5.87660317	    -10.06728429	      3.94682767	      3.60477528	    -21.01527525	    -14.70558625	    -12.16924934	     25.32804257	     46.95348081	      0.00000000	      0.00000000	     32.04008289	    -21.90600473	      7.01712453	     92.63765013	     47.37249566	      0.00000000	      0.00000000
     18.88471429	     -6.73128041	     -2.94591369	     -1.89774511	      1.01040947	      0.91901486	      0.44542968	     29.22136078	     -1.91281189	    -16.55940125	     12.47365660	     12.47365660	      2.38111456	      3.24493485	      9.13724695	      1.52898807	     -3.90054559	    -12.65354908	     12.32719297	     12.32719297	     18.71687642	     -1.40865482	     -4.97912150	     -9.91228625	      3.82739452	      3.14815229	    -22.42015637	    -14.68027010	    -12.01448363	     27.97641948	     46.77963641	      0.00000000	      0.00000000	     30.90186475	    -22.61388941	      6.57134898	     95.32595443	     47.50249618	      0.00000000	      0.00000000
     18.89628571	     -6.83485564	     -2.85923648	     -1.90942321	      1.01218088	      0.91732781	      0.44806956	     29.14346611	     -1.68955150	    -16.67254512	     12.48436642	     12.48436642	      2.24754681	      3.22484866	      9.17460794	      0.97178720	     -3.98171492	    -12.62188415	     12.40245058	     12.40245058	     19.06119788	     -1.48043384	     -5.08275229	     -9.49232026	      3.61987010	      3.10111231	    -22.61734138	    -14.58632302	    -12.00373403	     27.92732797	     46.77850857	      0.00000000	      0.00000000	     30.83787401	    -22.60467412	      6.56747672	     95.38918790	     47.50433775	      0.00000000	      0.00000000
     18.90785714	     -6.80996519	     -3.01098770	     -1.84177058	      1.01434040	      0.91597296	      0.45092493	     28.61221274	     -1.20578747	    -16.77574918	     12.21646917	     12.21646917	      0.92671661	      2.85907456	      5.83998856	      0.45761007	     -4.48143810	    -13.03195537	     13.00128348	     13.00128348	     20.46844735	     -0.45863693	     -3.36495646	     -9.38362955	      3.74536130	      2.94089287	    -23.50864015	    -14.36066653	    -11.51470096	     29.05490921	     46.65177524	      0.00000000	      0.00000000	     29.33427042	    -22.81239609	      6.07140530	     97.78487494	     47.64570814	      0.00000000	      0.00000000
     18.91942857	     -6.84650537	     -3.11208561	     -1.77990312	      1.01620733	      0.91476912	      0.45367660	     28.55974623	     -0.96581137	    -16.74610043	     13.04614096	     13.04614096	      0.74699203	      2.38089714	      5.14555110	      0.05889210	     -4.84321145	    -12.88240988	     13.51518365	     13.51518365	     20.83498569	     -0.65766720	     -3.33805651	     -9.12483922	      3.83165376	      3.09933161	    -23.67989696	    -14.17298732	    -11.39023249	     28.92196439	     46.64236025	      0.00000000	      0.00000000	     28.76862101	    -22.55632519	      6.13485435	     97.98009464	     47.65284300	      0.00000000	      0.00000000
     18.93100000	     -6.77489498	     -3.23739921	     -1.69555082	      1.01809868	      0.91413068	      0.45649679	     28.26731906	     -0.72432631	    -16.77106549	     13.83337549	     13.83337549	      0.66204386	      2.00515729	      4.74348087	     -0.43383297	     -5.24647442	    -12.73549250	     14.04992819	     14.04992819	     21.02171840	     -0.87482250	     -3.37139109	     -9.00911022	      3.92757353	      3.21141444	    -23.52786499	    -13.72556584	    -11.30100083	     28.94750797	     46.63371656	      0.00000000	      0.00000000	     27.95320725	    -22.30437601	      6.32163868	     97.95609104	     47.63950007	      0.00000000	      0.00000000
     18.94257143	     -6.96516250	     -3.26601111	     -1.50628292	      1.01948002	      0.91280120	      0.45917820	     28.76435416	     -0.70719875	    -16.20936313	     15.57762712	     15.57762712	      0.23284550	      0.22097706	      2.24399640	      0.09610787	     -5.73704161	    -12.47839865	     15.94173304	     15.94173304	     21.59063248	     -1.31890625	     -3.32516260	     -8.65345448	      3.95538096	      3.04156276	    -23.16454819	    -13.75073022	    -11.17195385	     28.71924663	     46.62954431	      0.00000000	      0.00000000	     26.90431477	    -22.25962529	      6.07593093	     98.58470378	     47.68380986	      0.00000000	      0.00000000
     18.95414286	     -6.97801878	     -3.34301293	     -1.29829781	      1.02088419	      0.91240177	      0.46192709	     28.75959991	     -0.62746605	    -15.90867269	     16.84257275	     16.84257275	      0.14282018	     -0.82708438	      0.59322001	      0.42742544	     -6.27446545	    -12.12828691	     17.74762521	     17.74762521	     21.62111682	     -1.84095747	     -3.43461083	     -8.60146902	      4.03564615	      2.93924392	    -22.38609387	    -13.43483455	    -10.98514351	     28.57338167	     46.62270889	      0.00000000	      0.00000000	     25.81142789	    -22.09040384	      5.93214194	     98.61772966	     47.70451983	      0.00000000	      0.00000000
     18.96571429	     -6.83627403	     -3.45075121	     -1.06447375	      1.02233919	      0.91252066	      0.46458539	     28.38116725	     -0.44271874	    -15.49474637	     17.66946208	     17.66946208	     -0.61698739	     -2.34739308	     -2.91820800	      0.77470290	     -6.85860788	    -11.69156934	     19.86146308	     19.86146308	     21.36794659	     -2.62048122	     -3.92446995	     -8.70258406	      4.15430229	      2.33179718	    -20.69563814	    -13.43449782	    -10.24658870	     27.18438619	     46.62112397	      0.00000000	      0.00000000	     23.99190730	    -21.96805540	      4.90503455	     98.96267758	     47.83927334	      0.00000000	      0.00000000
     18.97728571	     -6.73085761	     -3.56127204	     -0.78648283	      1.02347482	      0.91292664	      0.46707345	     28.13816112	     -0.40922633	    -15.53146902	     18.79278674	     18.79278674	      0.00971972	     -2.76011428	     -3.31810783	      1.50812054	     -7.48386558	    -11.08498648	     22.51984414	     22.51984414	     20.87027050	     -3.67233949	     -4.47568884	     -8.82866819	      4.32040695	      2.40246568	    -19.78989698	    -13.22755427	    -10.10230407	     27.31189224	     46.60950519	      0.00000000	      0.00000000	     22.95106840	    -21.60417520	      5.15644359	     98.30884586	     47.81596745	      0.00000000	      0.00000000
     18.98885714	     -6.66876048	     -3.61456660	     -0.49061805	      1.02439665	      0.91363421	      0.46945857	     27.85646269	     -0.39741593	    -15.48976824	     19.70713331	     19.70713331	      0.75861810	     -3.22692900	     -3.30401382	      2.53385150	     -8.01602027	    -10.26428808	     25.47421268	     25.47421268	     19.68383373	     -5.28476031	     -5.67943038	     -8.89664659	      4.45409410	      2.30669504	    -18.43023757	    -13.10611176	     -9.70900548	     26.96499453	     46.60022822	      0.00000000	      0.00000000	     21.69813064	    -21.11263716	      5.10998316	     97.11511079	     47.81665455	      0.00000000	      0.00000000
     19.00042857	     -6.42029961	     -3.78733855	     -0.18330339	      1.02523761	      0.91484159	      0.47176997	     27.15036249	     -0.25605563	    -15.73101202	     20.19754035	     20.19754035	      1.51971723	     -3.23670782	     -3.52151606	      3.63827538	     -8.74899927	     -9.57277351	     28.90880359	     28.90880359	     18.57356717	     -6.59740891	     -6.29085336	     -9.25925748	      4.71385613	      2.41495390	    -17.14480082	    -13.01337772	     -9.55800593	     27.15084671	     46.59065176	      0.00000000	      0.00000000	     20.58272256	    -20.64639881	      5.39310466	     96.21772338	     47.78326267	      0.00000000	      0.00000000
     19.01200000	     -6.32032999	     -3.88953438	      0.14604033	      1.02582633	      0.91607452	      0.47394293	     26.48540454	     -0.16408489	    -16.01566987	     20.41435302	     20.41435302	      2.28865473	     -3.08378708	     -3.66708952	      5.16030262	     -9.37147442	     -8.73285128	     32.64121118	     32.64121118	     17.10728325	     -8.14194069	     -6.85568078	     -9.43685387	      4.90036767	      2.43269579	    -15.67767189	    -12.93638214	     -9.36353423	     27.31301600	     46.58055829	      0.00000000	      0.00000000	     19.31333039	    -20.13367095	      5.65269038	     94.84393890	     47.74161794	      0.00000000	      0.00000000
     19.02357143	     -6.24671818	     -3.85672879	      0.49336712	      1.02624351	      0.91752688	      0.47581033	     25.77281391	     -0.25639110	    -16.51157997	     20.49119683	     20.49119683	      3.15831574	     -2.49111754	     -3.55292956	      6.83452336	     -9.67055226	     -7.60128453	     36.35618494	     36.35618494	     15.01048203	    -10.48550101	     -7.61746042	     -9.50740922	      4.95691649	      2.31675800	    -13.82572867	    -12.97623429	     -8.74871320	     26.82780979	     46.56759153	      0.00000000	      0.00000000	     18.15286817	    -19.37370322	      5.54195637	     92.25974662	     47.71560654	      0.00000000	      0.00000000
